# xmcd
#
# Track frame offsets: 
#        182
#        13257
#        24850
#        38452
#        49670
#        59252
#        68302
#        79462
#        87990
#        99540
#        110037
#        119965
#        132745
#        145037
#        156415
#        169582
#        181890
#        192122
#        204490
#        214932
#        228390
#        237475
#        245800
#        257710
#        268865
#        279590
#
# Disc length: 3850 seconds
#
# Revision: 4
# Processed by: cddbd v1.5.2PL0 Copyright (c) Steve Scherf et al.
# Submitted via: ExactAudioCopy v1.1
#
DISCID=820f081a
DTITLE=Various Artist - Northern Soul Of Chicago (Goldmine Soul Suppl
DTITLE=y) - Volume 2
DYEAR=1995
DGENRE=R&B
TTITLE0=The Magnetics - Count The Days (mono)
TTITLE1=Jimmy Robbins - I Can't Please  You (mono)
TTITLE2=Wade Flemmons - Jeanette (mono)
TTITLE3=Ronnie Savoy - Pitfall (mono)
TTITLE4=The Venturas - Baby Be Mine (mono)
TTITLE5=Monique - Never Let Me Go (mono)
TTITLE6=Jimmy Burns - I Really Love You (mono)
TTITLE7=Syl Johnson - Do You Know What Love Is (mono)
TTITLE8=The Invaders - The Best Is Yet To Come (mono)
TTITLE9=Gloria and The T-Aira's - Running Out Of Time (mono)
TTITLE10=The Jo Armstead Band - The Urge Keeps Coming (mono)
TTITLE11=Living Color - Thank The Lord For Love (mono)
TTITLE12=The Admirations - Heaven Is In Your Arms (mono)
TTITLE13=Chuck Bernard - Every Hurt Make You Stronger (mono)
TTITLE14=Lenny Vestel - In Paradise (mono)
TTITLE15=Drake and The Ensolids - Fight For Love (mono)
TTITLE16=The Kittens - Wait A Minute (mono)
TTITLE17=Phil Orsi - Lovin' On Borrowed Time (mono)
TTITLE18=Harold Currington - One Day Girl (mono)
TTITLE19=Tyrone Davis - I'm Running A Losing Race (mono)
TTITLE20=Wendy Woods - Don't Hurt Me No More (mono)
TTITLE21=Eddie King and Mae B. May - Please Mr DJ (mono)
TTITLE22=The Buckner Brothers - A Change Is Gonna Come (mono)
TTITLE23=Don Gardner - Ain't Gonna Let You Get Me Down (mono)
TTITLE24=The Conquistadors - Lonely Was I (mono)
TTITLE25=The Del-Tours - Sweet And Lovely (mono)
EXTD=The  Northern Soul Of Chicago Volume 2 
EXTT0=
EXTT1=
EXTT2=
EXTT3=
EXTT4=
EXTT5=
EXTT6=
EXTT7=
EXTT8=
EXTT9=
EXTT10=
EXTT11=
EXTT12=
EXTT13=
EXTT14=
EXTT15=
EXTT16=
EXTT17=
EXTT18=
EXTT19=
EXTT20=
EXTT21=
EXTT22=
EXTT23=
EXTT24=
EXTT25=
PLAYORDER=
